# xmcd
#
# Track frame offsets:
#	150
#	12500
#	30954
#	46913
#	60602
#	73166
#	90605
#	104429
#	118420
#	130821
#	148040
#	160833
#
# Disc length: 2371 seconds
#
# Revision: 6
# Processed by: cddbd v1.5.2PL0 Copyright (c) Steve Scherf et al.
# Submitted via: EasyCDDAExtractor 15.2.5.1
#
DISCID=a609410c
DTITLE=鄧 麗君 - 淡淡幽情 DTS_ES
DYEAR=1983
DGENRE=Other
TTITLE0=獨上西楼
TTITLE1=但願人長久
TTITLE2=幾多愁
TTITLE3=芳草無情
TTITLE4=清夜悠悠
TTITLE5=有誰知我此時情
TTITLE6=臙脂淚
TTITLE7=萬葉千聲
TTITLE8=人約黄昏後
TTITLE9=相看涙眼
TTITLE10=欲説還休
TTITLE11=思君
EXTD=YEAR: 1983
EXTT0=
EXTT1=
EXTT2=
EXTT3=
EXTT4=
EXTT5=
EXTT6=
EXTT7=
EXTT8=
EXTT9=
EXTT10=
EXTT11=
PLAYORDER=
